<svg id="Multicolor" xmlns="http://www.w3.org/2000/svg" xmlns:xlink="http://www.w3.org/1999/xlink" viewBox="0 0 100 112"><defs><style>.cls-1,.cls-4,.cls-9{fill:none;}.cls-2{fill:#e8f4fa;}.cls-13,.cls-3{fill:#fff;}.cls-4{stroke:#4f4a45;}.cls-12,.cls-13,.cls-22,.cls-25,.cls-28,.cls-30,.cls-31,.cls-32,.cls-33,.cls-4,.cls-9{stroke-linecap:round;}.cls-12,.cls-13,.cls-22,.cls-25,.cls-28,.cls-29,.cls-30,.cls-31,.cls-32,.cls-33,.cls-4,.cls-9{stroke-linejoin:round;}.cls-5{fill:#191816;opacity:0.15;}.cls-6{clip-path:url(#clip-path);}.cls-7{fill:#6dd627;}.cls-8{fill:#9ceb60;}.cls-12,.cls-13,.cls-22,.cls-25,.cls-28,.cls-29,.cls-30,.cls-31,.cls-32,.cls-33,.cls-9{stroke:#191816;}.cls-10,.cls-12{fill:#ffcebf;}.cls-11{fill:#ffb59e;}.cls-14,.cls-32{fill:#d18660;}.cls-15{fill:#bd704a;}.cls-16,.cls-30{fill:#ffe500;}.cls-17{fill:#fff48c;}.cls-18,.cls-31{fill:#724f3d;}.cls-19{fill:#a86c4d;}.cls-20,.cls-22{fill:#ffb0ca;}.cls-21{fill:#fcd;}.cls-23,.cls-25{fill:#ffda8f;}.cls-24{fill:#ffbe3d;}.cls-26,.cls-28{fill:#daedf7;}.cls-27{fill:#c0dceb;}.cls-29{fill:#f0f0f0;}.cls-33,.cls-35{fill:#947063;}.cls-34{fill:#614b44;}</style><clipPath id="clip-path"><circle class="cls-1" cx="50.5" cy="56" r="40"/></clipPath></defs><title>03- team-leader-teamwork-asian</title><g id="Background"><g id="New_Symbol_9-26" data-name="New Symbol 9"><path class="cls-2" d="M90.5,56A40,40,0,1,0,14.06,72.5H86.94A39.85,39.85,0,0,0,90.5,56Z"/><path class="cls-3" d="M14.06,72.5a40,40,0,0,0,72.88,0Z"/><line class="cls-4" x1="11.5" y1="72.5" x2="89.5" y2="72.5"/><line class="cls-4" x1="7" y1="72.5" x2="9.5" y2="72.5"/><line class="cls-4" x1="91.5" y1="72.5" x2="94" y2="72.5"/></g></g><g id="Scene"><ellipse class="cls-5" cx="50.5" cy="85.5" rx="13" ry="1.5"/><g class="cls-6"><path class="cls-7" d="M39,62A15.5,15.5,0,0,0,8,62v2.5h6v8H33v-8h6Z"/><path class="cls-8" d="M23.5,46.5A15.5,15.5,0,0,0,8,62v2.5h.08a15.49,15.49,0,0,1,30.84,0H39V62A15.5,15.5,0,0,0,23.5,46.5Z"/><path class="cls-9" d="M39,62A15.5,15.5,0,0,0,8,62v2.5h6v8H33v-8h6Z"/><line class="cls-9" x1="14" y1="60.5" x2="14" y2="64.5"/><line class="cls-9" x1="33" y1="60.5" x2="33" y2="64.5"/><path class="cls-10" d="M20,47a3.5,3.5,0,0,0,7,0V43.5H20Z"/><path class="cls-11" d="M20,47a12.26,12.26,0,0,0,7,0V43.5H20Z"/><path class="cls-9" d="M20,47V43.5h7V47a3.5,3.5,0,0,1-7,0Z"/><rect class="cls-12" x="9" y="64.5" width="5" height="8"/><rect class="cls-12" x="33" y="64.5" width="5" height="8"/><path class="cls-13" d="M61.5,72.5V62a15.5,15.5,0,0,1,31,0V72.5Z"/><path class="cls-14" d="M73.5,47a3.5,3.5,0,0,0,7,0V43.5h-7Z"/><path class="cls-15" d="M73.5,47a12.26,12.26,0,0,0,7,0V43.5h-7Z"/><path class="cls-9" d="M73.5,47V43.5h7V47a3.5,3.5,0,0,1-7,0Z"/><path class="cls-16" d="M61.5,72.5V62a15.5,15.5,0,0,1,8.69-13.91,7,7,0,0,0,13.62,0A15.5,15.5,0,0,1,92.5,62V72.5Z"/><path class="cls-17" d="M72.36,51.71a7,7,0,0,1-2.17-3.62A15.5,15.5,0,0,0,61.5,62S64,52.5,72.36,51.71Z"/><path class="cls-17" d="M83.81,48.09a7,7,0,0,1-2.17,3.62C88.52,52.59,92.5,62,92.5,62A15.5,15.5,0,0,0,83.81,48.09Z"/><line class="cls-9" x1="67.5" y1="60.5" x2="67.5" y2="72.5"/><line class="cls-9" x1="86.5" y1="60.5" x2="86.5" y2="72.5"/><path class="cls-9" d="M61.5,72.5V62a15.5,15.5,0,0,1,8.69-13.91,7,7,0,0,0,13.62,0A15.5,15.5,0,0,1,92.5,62V72.5Z"/><path class="cls-13" d="M77,50.5S73.5,46,72,46s-2.62,2.5-2.62,2.5l3.52,3.85a1,1,0,0,0,1.32.14Z"/><path class="cls-13" d="M77,50.5S80.5,46,82,46s2.62,2.5,2.62,2.5L81.1,52.35a1,1,0,0,1-1.32.14Z"/><line class="cls-9" x1="77" y1="50.5" x2="77" y2="53.5"/></g><path class="cls-18" d="M56.5,50.5a6,6,0,0,0,6-6v-12a12,12,0,0,0-12.8-12A12.26,12.26,0,0,0,38.5,32.91V44.5a6,6,0,0,0,6,6Z"/><path class="cls-19" d="M49.7,20.53A12.26,12.26,0,0,0,38.5,32.91v3A12.26,12.26,0,0,1,49.7,23.53a12,12,0,0,1,12.8,12v-3A12,12,0,0,0,49.7,20.53Z"/><path class="cls-9" d="M56.5,50.5a6,6,0,0,0,6-6v-12a12,12,0,0,0-12.8-12A12.26,12.26,0,0,0,38.5,32.91V44.5a6,6,0,0,0,6,6Z"/><path class="cls-20" d="M66,72.5V65a15.5,15.5,0,0,0-31,0v7.5Z"/><path class="cls-21" d="M50.5,54.5A15.5,15.5,0,0,1,66,70V65a15.5,15.5,0,0,0-31,0v5A15.5,15.5,0,0,1,50.5,54.5Z"/><path class="cls-9" d="M66,72.5V65a15.5,15.5,0,0,0-31,0v7.5Z"/><path class="cls-22" d="M57,50.37a4,4,0,0,0-3.46-1.87h-6A4,4,0,0,0,44,50.37a3.81,3.81,0,0,0-.31,3.26l1.36,3.73a1,1,0,0,0,1.45.52l4-2.38,4,2.38a1,1,0,0,0,1.45-.52l1.36-3.73A3.84,3.84,0,0,0,57,50.37Z"/><line class="cls-9" x1="50.5" y1="55.5" x2="50.5" y2="72.5"/><polygon class="cls-23" points="54 52 50.5 55.5 47 52 47 46.5 54 46.5 54 52"/><path class="cls-24" d="M47,50a12.26,12.26,0,0,0,7,0V46.5H47Z"/><polygon class="cls-9" points="54 52 50.5 55.5 47 52 47 46.5 54 46.5 54 52"/><line class="cls-9" x1="41" y1="63.5" x2="41" y2="72.5"/><line class="cls-9" x1="60" y1="63.5" x2="60" y2="72.5"/><path class="cls-25" d="M60.5,36V33.5c0-.23,0-.46,0-.69a11,11,0,0,1-13.55-2.93A5.49,5.49,0,0,1,41.5,34.5a5.56,5.56,0,0,1-1-.1V36a2,2,0,0,0,0,4h.12a10,10,0,0,0,19.76,0h.12a2,2,0,0,0,0-4Z"/><path class="cls-9" d="M47.48,42.8a4.38,4.38,0,0,0,6,0"/><path class="cls-9" d="M56,37a1.63,1.63,0,0,0-3,0"/><path class="cls-9" d="M48,37a1.63,1.63,0,0,0-3,0"/><circle class="cls-24" cx="44.75" cy="40.25" r="1.25"/><circle class="cls-24" cx="56.25" cy="40.25" r="1.25"/><rect class="cls-26" x="30" y="51.5" width="41" height="29" rx="2" ry="2"/><path class="cls-3" d="M69,51.5H32a2,2,0,0,0-2,2H71A2,2,0,0,0,69,51.5Z"/><path class="cls-27" d="M30,78.5a2,2,0,0,0,2,2H69a2,2,0,0,0,2-2Z"/><path class="cls-28" d="M57.49,83.5a.49.49,0,0,1,.37.16.48.48,0,0,1,.13.39,1.59,1.59,0,0,1-.33.83,1.62,1.62,0,0,1-1.27.62H44.61a1.62,1.62,0,0,1-1.27-.62,1.59,1.59,0,0,1-.33-.83.51.51,0,0,1,.12-.39.53.53,0,0,1,.38-.16Z"/><rect class="cls-9" x="30" y="51.5" width="41" height="29" rx="2" ry="2"/><path class="cls-28" d="M56.5,85.5h-12c1.24-3.31,1.8-11.74,2-14.56a1,1,0,0,1,1-.94h6.1a1,1,0,0,1,1,.94C54.7,73.76,55.26,82.19,56.5,85.5Z"/><line class="cls-9" x1="33.5" y1="76" x2="33.5" y2="77.5"/><line class="cls-9" x1="35.5" y1="76" x2="35.5" y2="77.5"/><line class="cls-9" x1="37.5" y1="76" x2="37.5" y2="77.5"/><line class="cls-9" x1="39.5" y1="76" x2="39.5" y2="77.5"/><path class="cls-29" d="M51.59,62.65a1.14,1.14,0,0,1,.53-.94,1.13,1.13,0,0,0-.9-.48c-.38,0-.74.22-.94.22s-.49-.22-.81-.21a1.17,1.17,0,0,0-1,.61,2.53,2.53,0,0,0,.31,2.48c.2.3.45.63.77.62s.43-.2.81-.2.48.2.81.19.55-.3.75-.6a2.76,2.76,0,0,0,.34-.7A1.08,1.08,0,0,1,51.59,62.65Z"/><line class="cls-9" x1="50.75" y1="59.95" x2="51.2" y2="59.5"/><line class="cls-9" x1="33" y1="53.5" x2="67.5" y2="53.5"/><path class="cls-12" d="M33.5,33V30.5a10,10,0,0,0-20,0V33a2,2,0,0,0,0,4h.12a10,10,0,0,0,19.76,0h.12a2,2,0,0,0,0-4Z"/><path class="cls-9" d="M29,34a1.63,1.63,0,0,0-3,0"/><path class="cls-9" d="M21,34a1.63,1.63,0,0,0-3,0"/><circle class="cls-11" cx="17.75" cy="37.25" r="1.25"/><circle class="cls-11" cx="29.25" cy="37.25" r="1.25"/><path class="cls-18" d="M34.5,29.5c0-6.63-4.92-12-11-12s-11,5.37-11,12a11.74,11.74,0,0,0,.4,3.6,2,2,0,0,1,.6-.1h0a1.78,1.78,0,0,1,1.41,1,1.73,1.73,0,0,1,.16.72,9.23,9.23,0,0,0,.21-4.07c1.06.35,2.79-1.15,2.79-1.15V27.1a24,24,0,0,0,5.4,1.2,24,24,0,0,0,5.4-1.2v2.4s1.73,1.5,2.79,1.15a9.24,9.24,0,0,0,.21,4.07,1.73,1.73,0,0,1,.16-.72,1.78,1.78,0,0,1,1.41-1h0a2,2,0,0,1,.6.1A11.74,11.74,0,0,0,34.5,29.5Z"/><path class="cls-18" d="M23.5,17.5a10.23,10.23,0,0,1,2.93.43c1.09-1.53,2.07-3.23,2.07-4.43,0-2.7-2.3-4.5-5-4.5s-5,1.8-5,4.5c0,1.2,1,2.9,2.07,4.43A10.23,10.23,0,0,1,23.5,17.5Z"/><path class="cls-9" d="M23.5,17.5a10.23,10.23,0,0,1,2.93.43c1.09-1.53,2.07-3.23,2.07-4.43,0-2.7-2.3-4.5-5-4.5s-5,1.8-5,4.5c0,1.2,1,2.9,2.07,4.43A10.23,10.23,0,0,1,23.5,17.5Z"/><path class="cls-30" d="M27.48,16.32a10.07,10.07,0,0,0-8,0c.32.54.68,1.09,1.05,1.61a10.2,10.2,0,0,1,5.86,0C26.8,17.41,27.16,16.86,27.48,16.32Z"/><path class="cls-31" d="M36,39.2A2.59,2.59,0,0,0,33.37,37h-.44A2,2,0,0,0,31,38.43c-.36,1.15-.86,2-1.51,2.07-2,.34-3.5-2-6-2s-4,2.34-6,2c-.65-.11-1.15-.92-1.51-2.07A2,2,0,0,0,14.07,37h-.44A2.59,2.59,0,0,0,11,39.2a2.49,2.49,0,0,0,1.08,2.37A2,2,0,0,0,13.19,45,2.94,2.94,0,0,0,13,46a3,3,0,0,0,3,3,2.94,2.94,0,0,0,1-.19A2.49,2.49,0,0,0,19.5,51a2.61,2.61,0,0,0,1-.21,3.47,3.47,0,0,0,6,0,2.61,2.61,0,0,0,1,.21A2.49,2.49,0,0,0,30,48.81,2.94,2.94,0,0,0,31,49a3,3,0,0,0,3-3,2.94,2.94,0,0,0-.19-1,2,2,0,0,0,1.09-3.4A2.49,2.49,0,0,0,36,39.2Z"/><path class="cls-12" d="M23.5,44.06c-1.5,0-2.5,1-3,0-.81-1.62,1-3.5,3-3.5s3.81,1.88,3,3.5C26,45.06,25,44.06,23.5,44.06Z"/><path class="cls-32" d="M87,33V30.5a10,10,0,0,0-20,0V33a2,2,0,0,0,0,4h.12a10,10,0,0,0,19.76,0H87a2,2,0,0,0,0-4Z"/><path class="cls-9" d="M74,39.8a4.38,4.38,0,0,0,6,0"/><path class="cls-9" d="M82.5,34a1.63,1.63,0,0,0-3,0"/><path class="cls-9" d="M74.51,34a1.63,1.63,0,0,0-3,0"/><circle class="cls-15" cx="71.25" cy="37.25" r="1.25"/><circle class="cls-15" cx="82.75" cy="37.25" r="1.25"/><path class="cls-33" d="M78,20.55c-.33,0-.67-.05-1-.05s-.69,0-1,.05a10,10,0,0,0-9,10V33a1.73,1.73,0,0,1,1.6,1.72,9.07,9.07,0,0,0,.21-4.07c1.06.35,2.79-1.15,2.79-1.15V27.1A24,24,0,0,0,77,28.3a24,24,0,0,0,5.4-1.2v2.4s1.73,1.5,2.79,1.15a9.07,9.07,0,0,0,.21,4.07A1.73,1.73,0,0,1,87,33V30.5A10,10,0,0,0,78,20.55Z"/><path class="cls-34" d="M87,18.5a1,1,0,0,0-1-1,1,1,0,0,0-1-1,1,1,0,0,0-2,0,.5.5,0,0,0-.13,0,1,1,0,0,0-1.74,0,.3.3,0,0,0-.26,0,1,1,0,0,0-1.74,0,.5.5,0,0,0-.13,0,1,1,0,0,0-1,1,1,1,0,0,0-2,0,1,1,0,0,0-1-1,.5.5,0,0,0-.13,0,1,1,0,0,0-1.74,0,.3.3,0,0,0-.26,0,1,1,0,0,0-1.74,0,.5.5,0,0,0-.13,0,1,1,0,0,0-2,0,1,1,0,0,0-1,1,1,1,0,0,0-.47,1.87.5.5,0,0,0,0,.13.94.94,0,0,0,.15.49,1,1,0,0,0-.15.51,1,1,0,0,0,.65.93l.15,4.16,3.3,1.51A24,24,0,0,0,77,28.3a24,24,0,0,0,5.4-1.2l3.3-1.51.15-4.16a1,1,0,0,0,.65-.93,1,1,0,0,0-.15-.51.94.94,0,0,0,.15-.49.5.5,0,0,0,0-.13A1,1,0,0,0,87,18.5Z"/><path class="cls-35" d="M87,18.5a1,1,0,0,0-1-1,1,1,0,0,0-1-1,1,1,0,0,0-2,0,.5.5,0,0,0-.13,0,1,1,0,0,0-1.74,0,.3.3,0,0,0-.26,0,1,1,0,0,0-1.74,0,.5.5,0,0,0-.13,0,1,1,0,0,0-1,1,1,1,0,0,0-2,0,1,1,0,0,0-1-1,.5.5,0,0,0-.13,0,1,1,0,0,0-1.74,0,.3.3,0,0,0-.26,0,1,1,0,0,0-1.74,0,.5.5,0,0,0-.13,0,1,1,0,0,0-2,0,1,1,0,0,0-1,1,1,1,0,0,0-.47,1.87.5.5,0,0,0,0,.13.94.94,0,0,0,.15.49,1,1,0,0,0-.15.51.43.43,0,0,0,0,.11.94.94,0,0,1,.93-.87,1,1,0,0,1,1-.95,1,1,0,0,1,1.9,0,.61.61,0,0,1,.13,0,.91.91,0,0,1,1.64,0,.3.3,0,0,1,.26,0,.91.91,0,0,1,1.64,0,.61.61,0,0,1,.13,0,1,1,0,0,1,1,.95,1,1,0,0,1,1.9,0,1,1,0,0,1,1-.95.61.61,0,0,1,.13,0,.91.91,0,0,1,1.64,0,.3.3,0,0,1,.26,0,.91.91,0,0,1,1.64,0,.61.61,0,0,1,.13,0,.95.95,0,0,1,1.9,0,1,1,0,0,1,1,.95.94.94,0,0,1,.93.87.43.43,0,0,0,0-.11,1,1,0,0,0-.15-.51.94.94,0,0,0,.15-.49.5.5,0,0,0,0-.13A1,1,0,0,0,87,18.5Z"/><path class="cls-9" d="M87,18.5a1,1,0,0,0-1-1,1,1,0,0,0-1-1,1,1,0,0,0-2,0,.5.5,0,0,0-.13,0,1,1,0,0,0-1.74,0,.3.3,0,0,0-.26,0,1,1,0,0,0-1.74,0,.5.5,0,0,0-.13,0,1,1,0,0,0-1,1,1,1,0,0,0-2,0,1,1,0,0,0-1-1,.5.5,0,0,0-.13,0,1,1,0,0,0-1.74,0,.3.3,0,0,0-.26,0,1,1,0,0,0-1.74,0,.5.5,0,0,0-.13,0,1,1,0,0,0-2,0,1,1,0,0,0-1,1,1,1,0,0,0-.47,1.87.5.5,0,0,0,0,.13.94.94,0,0,0,.15.49,1,1,0,0,0-.15.51,1,1,0,0,0,.65.93l.15,4.16,3.3,1.51A24,24,0,0,0,77,28.3a24,24,0,0,0,5.4-1.2l3.3-1.51.15-4.16a1,1,0,0,0,.65-.93,1,1,0,0,0-.15-.51.94.94,0,0,0,.15-.49.5.5,0,0,0,0-.13A1,1,0,0,0,87,18.5Z"/><path class="cls-19" d="M23.5,21c5.59,0,10.21,4.55,10.91,10.44.05-.52.09-1.16.09-1.94,0-6.63-4.92-12-11-12s-11,5.37-11,12c0,.78,0,1.42.09,1.94C13.29,25.55,17.91,21,23.5,21Z"/><path class="cls-9" d="M34.5,29.5c0-6.63-4.92-12-11-12s-11,5.37-11,12a11.74,11.74,0,0,0,.4,3.6,2,2,0,0,1,.6-.1h0a1.78,1.78,0,0,1,1.41,1,1.73,1.73,0,0,1,.16.72,9.23,9.23,0,0,0,.21-4.07c1.06.35,2.79-1.15,2.79-1.15V27.1a24,24,0,0,0,5.4,1.2,24,24,0,0,0,5.4-1.2v2.4s1.73,1.5,2.79,1.15a9.24,9.24,0,0,0,.21,4.07,1.73,1.73,0,0,1,.16-.72,1.78,1.78,0,0,1,1.41-1h0a2,2,0,0,1,.6.1A11.74,11.74,0,0,0,34.5,29.5Z"/></g></svg>